<svg width="32" height="32" viewBox="0 0 32 32" fill="none" xmlns="http://www.w3.org/2000/svg">
<path fill-rule="evenodd" clip-rule="evenodd" d="M19.502 5.19499C20.5456 3.84779 21.3368 1.94366 21.0506 0C19.3449 0.118539 17.3512 1.20986 16.1878 2.63232C15.1274 3.9212 14.2558 5.83852 14.5962 7.69938C16.4609 7.75771 18.3854 6.64003 19.502 5.19499ZM28.7188 23.4782C27.9726 25.1415 27.6135 25.8847 26.6522 27.358C25.3112 29.4145 23.4203 31.9753 21.0749 31.9942C18.9933 32.0167 18.4565 30.63 15.6305 30.6469C12.8044 30.662 12.2153 32.0205 10.1299 31.9998C7.78643 31.9791 5.99468 29.6685 4.65367 27.6119C0.901845 21.8656 0.507211 15.1203 2.82077 11.5321C4.46664 8.98447 7.06262 7.49427 9.50149 7.49427C11.9834 7.49427 13.5451 8.86406 15.6005 8.86406C17.5943 8.86406 18.8081 7.49052 21.679 7.49052C23.8523 7.49052 26.1547 8.68154 27.793 10.7362C22.4215 13.6978 23.2912 21.4141 28.7188 23.4782Z" fill="#2F3640"/>
</svg>
