<svg width="32" height="32" viewBox="0 0 32 32" fill="none" xmlns="http://www.w3.org/2000/svg">
<g clip-path="url(#clip0_85_3965)">
<path d="M6.54725 10.1043H0V29.7459H6.54725V10.1043Z" fill="#2F3640"/>
<path d="M19.5936 15.3452C19.2465 15.8101 19.0566 16.3734 19.0566 16.9622C19.0566 17.6892 19.338 18.3638 19.8488 18.874C20.3596 19.3849 21.0406 19.6662 21.7606 19.6662C22.4811 19.6662 23.1621 19.3849 23.6723 18.881C24.6352 17.9182 24.7203 16.406 23.9211 15.3453L19.5936 15.3452Z" fill="#2F3640"/>
<path d="M18.3297 25.5522V29.7491H24.8769V25.6699C23.8884 26.0235 22.8347 26.2069 21.7606 26.2069C20.5694 26.207 19.4038 25.9781 18.3297 25.5522Z" fill="#2F3640"/>
<path d="M12.5228 16.9622C12.5228 14.4942 13.4781 12.1765 15.2261 10.4284C15.3834 10.2712 15.5407 10.1202 15.7108 9.98279V2.25085H9.16357V29.7492H15.7108V23.948C15.5407 23.8106 15.3834 23.6604 15.2261 23.5031C13.478 21.755 12.5228 19.4373 12.5228 16.9622Z" fill="#2F3640"/>
<path d="M31.4068 24.3502L27.8743 20.9091C28.6274 19.7442 29.0353 18.3875 29.0353 16.9648C29.0353 15.0185 28.2789 13.1912 26.9062 11.8185C25.5334 10.4457 23.7061 9.68935 21.7598 9.68935C19.8136 9.68935 17.9856 10.4457 16.6135 11.8185C15.2401 13.1912 14.4844 15.0185 14.4844 16.9648C14.4844 18.9111 15.2401 20.739 16.6129 22.1118C17.9856 23.4845 19.8136 24.2409 21.7599 24.2409C23.1825 24.2409 24.5399 23.8324 25.7048 23.0792L29.1447 26.6105C29.7859 27.3835 30.7323 27.4295 31.4637 26.698C32.1958 25.9672 32.1798 24.9896 31.4068 24.3502ZM21.7599 20.8695C20.717 20.8695 19.7362 20.4629 18.9984 19.7256C18.2613 18.9885 17.8552 18.0076 17.8552 16.9648C17.8552 15.922 18.2613 14.9419 18.9984 14.2046C19.7362 13.4674 20.7164 13.0607 21.7599 13.0607C22.8021 13.0607 23.7829 13.4674 24.5201 14.2046C26.0424 15.727 26.0424 18.2039 24.5201 19.7262C23.7829 20.4635 22.8027 20.8695 21.7599 20.8695Z" fill="#2F3640"/>
</g>
<defs>
<clipPath id="clip0_85_3965">
<rect width="32" height="32" fill="white"/>
</clipPath>
</defs>
</svg>
