<svg width="32" height="32" viewBox="0 0 32 32" fill="none" xmlns="http://www.w3.org/2000/svg">
<g clip-path="url(#clip0_85_4023)">
<path d="M32.1285 17.1338C32.1285 16.1327 32.0398 15.1822 31.8877 14.2569H17.5665V19.9728H25.7664C25.3988 21.8484 24.3216 23.4327 22.7247 24.5099V28.312H27.6166C30.481 25.6631 32.1285 21.7598 32.1285 17.1338Z" fill="#2F3640"/>
<path d="M17.5665 7.60328C19.8097 7.60328 21.8122 8.37638 23.3963 9.88454L27.7306 5.55015C25.1072 3.09148 21.6727 1.58331 17.5665 1.58331C11.6226 1.58331 6.48975 5.00519 3.99304 9.97326L9.03714 13.8894C10.2411 10.2774 13.5996 7.60328 17.5665 7.60328Z" fill="#2F3640"/>
<path fill-rule="evenodd" clip-rule="evenodd" d="M17.5665 32C11.6226 32 6.48975 28.5781 3.99304 23.61L9.03714 19.6939C10.2411 23.3059 13.5996 25.9801 17.5665 25.9801C19.6196 25.9801 21.3559 25.4224 22.7247 24.5099L27.6166 28.312C25.1072 30.6313 21.6727 32 17.5665 32ZM9.03714 13.8895V9.97326H3.99304L9.03714 13.8895Z" fill="#2F3640"/>
<path d="M3.99305 19.6939H9.03715C8.7203 18.7814 8.55554 17.8056 8.55554 16.7917C8.55554 15.7777 8.73298 14.802 9.03715 13.8895L3.99305 9.97326C2.95382 12.0264 2.35815 14.3329 2.35815 16.7917C2.35815 19.2504 2.95382 21.5569 3.99305 23.61V19.6939Z" fill="#2F3640"/>
<path d="M9.03714 19.6939H3.99304V23.61L9.03714 19.6939Z" fill="#2F3640"/>
</g>
<defs>
<clipPath id="clip0_85_4023">
<rect width="32" height="32" fill="white"/>
</clipPath>
</defs>
</svg>
