<svg width="32" height="32" viewBox="0 0 32 32" fill="none" xmlns="http://www.w3.org/2000/svg">
<g clip-path="url(#clip0_85_3973)">
<path d="M26 12H23.3334V8.66667C23.3334 6.72174 22.5608 4.85648 21.1855 3.48122C19.8102 2.10595 17.945 1.33333 16 1.33333H14.6667C12.7218 1.33333 10.8565 2.10595 9.48126 3.48122C8.10599 4.85648 7.33337 6.72174 7.33337 8.66667V12H4.66671C4.31309 12 3.97395 12.1405 3.7239 12.3905C3.47385 12.6406 3.33337 12.9797 3.33337 13.3333V29.3333C3.33337 29.687 3.47385 30.0261 3.7239 30.2761C3.97395 30.5262 4.31309 30.6667 4.66671 30.6667H26C26.3537 30.6667 26.6928 30.5262 26.9429 30.2761C27.1929 30.0261 27.3334 29.687 27.3334 29.3333V13.3333C27.3334 12.9797 27.1929 12.6406 26.9429 12.3905C26.6928 12.1405 26.3537 12 26 12ZM10 8.66667C10 7.42899 10.4917 6.242 11.3669 5.36683C12.242 4.49166 13.429 4 14.6667 4H16C17.2377 4 18.4247 4.49166 19.2999 5.36683C20.175 6.242 20.6667 7.42899 20.6667 8.66667V12H10V8.66667ZM9.33337 23.3333C8.93781 23.3333 8.55113 23.216 8.22223 22.9963C7.89334 22.7765 7.63699 22.4642 7.48561 22.0987C7.33424 21.7332 7.29463 21.3311 7.3718 20.9432C7.44897 20.5552 7.63946 20.1988 7.91916 19.9191C8.19887 19.6394 8.55523 19.4489 8.94319 19.3718C9.33116 19.2946 9.73329 19.3342 10.0987 19.4856C10.4642 19.6369 10.7766 19.8933 10.9963 20.2222C11.2161 20.5511 11.3334 20.9378 11.3334 21.3333C11.3427 21.5985 11.2973 21.8627 11.2001 22.1096C11.1029 22.3564 10.9559 22.5807 10.7683 22.7683C10.5807 22.9559 10.3565 23.1029 10.1096 23.2001C9.86276 23.2973 9.59853 23.3426 9.33337 23.3333ZM15.3334 23.3333C14.9378 23.3333 14.5511 23.216 14.2222 22.9963C13.8933 22.7765 13.637 22.4642 13.4856 22.0987C13.3342 21.7332 13.2946 21.3311 13.3718 20.9432C13.449 20.5552 13.6395 20.1988 13.9192 19.9191C14.1989 19.6394 14.5552 19.4489 14.9432 19.3718C15.3312 19.2946 15.7333 19.3342 16.0987 19.4856C16.4642 19.6369 16.7766 19.8933 16.9963 20.2222C17.2161 20.5511 17.3334 20.9378 17.3334 21.3333C17.3427 21.5985 17.2973 21.8627 17.2001 22.1096C17.1029 22.3564 16.9559 22.5807 16.7683 22.7683C16.5807 22.9559 16.3565 23.1029 16.1096 23.2001C15.8628 23.2973 15.5985 23.3426 15.3334 23.3333ZM21.3334 23.3333C20.9378 23.3333 20.5511 23.216 20.2222 22.9963C19.8933 22.7765 19.637 22.4642 19.4856 22.0987C19.3342 21.7332 19.2946 21.3311 19.3718 20.9432C19.449 20.5552 19.6395 20.1988 19.9192 19.9191C20.1989 19.6394 20.5552 19.4489 20.9432 19.3718C21.3312 19.2946 21.7333 19.3342 22.0987 19.4856C22.4642 19.6369 22.7766 19.8933 22.9963 20.2222C23.2161 20.5511 23.3334 20.9378 23.3334 21.3333C23.3427 21.5985 23.2973 21.8627 23.2001 22.1096C23.1029 22.3564 22.9559 22.5807 22.7683 22.7683C22.5807 22.9559 22.3565 23.1029 22.1096 23.2001C21.8628 23.2973 21.5985 23.3426 21.3334 23.3333Z" fill="#2F3640"/>
</g>
<defs>
<clipPath id="clip0_85_3973">
<rect width="32" height="32" fill="white"/>
</clipPath>
</defs>
</svg>
