<svg width="32" height="32" viewBox="0 0 32 32" fill="none" xmlns="http://www.w3.org/2000/svg">
<path fill-rule="evenodd" clip-rule="evenodd" d="M10.6667 16.0055V19.5611H21.3333V16.0055H32V25.7833C32 28.2331 30.0053 30.2278 27.5556 30.2278H4.44445C1.99467 30.2278 0 28.2331 0 25.7833V16.0055H10.6667ZM18.6667 1.78333C20.1369 1.78333 21.3333 2.97978 21.3333 4.44999V7.11666H27.5556C30.0053 7.11666 32 9.11133 32 11.5611V14.2278H21.3333V12.45H10.6667V14.2278H0V11.5611C0 9.11133 1.99467 7.11666 4.44445 7.11666H10.6667V4.44999C10.6667 2.97978 11.8631 1.78333 13.3333 1.78333H18.6667ZM18.6667 3.56111H13.3333C12.8427 3.56111 12.4445 3.95933 12.4445 4.44999V7.11666H19.5556V4.44999C19.5556 3.95933 19.1573 3.56111 18.6667 3.56111Z" fill="#2F3640"/>
</svg>
